<svg width="40" height="40" viewBox="0 0 40 40" fill="none" xmlns="http://www.w3.org/2000/svg">
<path d="M13.4392 40L0 5.97531L5.37037 3.7284L15.3439 30.4938L13.4392 25.3821L19.127 20.8889L14.1534 8.2963L19.5238 6.12346L28.836 31.7531C29.8236 29.7119 30.7936 27.6872 31.746 25.679C32.716 23.6543 33.6772 21.6132 34.6296 19.5556C35.0882 18.5514 35.4938 17.5391 35.8466 16.5185C36.1993 15.4815 36.3757 14.3868 36.3757 13.2346C36.3757 12.3457 36.2522 11.5062 36.0053 10.7161C35.776 9.92593 35.4497 9.17696 35.0265 8.46914C34.6032 7.74486 34.0917 7.06996 33.4921 6.44444C32.9101 5.80247 32.2751 5.20165 31.5873 4.64198L35.6085 0C36.261 0.444444 36.8519 0.995885 37.381 1.65432C37.9277 2.31276 38.3951 3.02058 38.7831 3.77778C39.1711 4.53498 39.4709 5.31687 39.6825 6.12346C39.8942 6.93004 40 7.7037 40 8.44444C40 9.893 39.7707 11.3004 39.3122 12.6667C38.8536 14.0165 38.3245 15.358 37.7249 16.6914C35.9083 20.6091 34.0829 24.4938 32.2487 28.3457C30.4145 32.1975 28.5714 36.0823 26.7196 40L19.9471 22.9136L13.4392 40Z" fill="#FFD100"/>
</svg>
