<svg width="38" height="41" viewBox="0 0 38 41" fill="none" xmlns="http://www.w3.org/2000/svg">
<path d="M18.1719 32.1079V31.0865H17.1425V32.1049C12.5325 31.8334 8.84474 28.0871 8.60402 23.4168H9.62698V22.3757H8.60946C8.88278 17.7381 12.5552 14.0277 17.1425 13.7571V14.7807H18.1719V13.7542C22.6933 13.9986 26.3357 17.5858 26.7292 22.1167V22.4152H25.6983V23.4562H26.7295V23.7408C26.3379 28.274 22.6949 31.8634 18.1719 32.1079ZM35.3224 32.1276L35.3166 5.09285H26.727V7.6283C24.9278 6.5364 22.9497 5.77952 20.8865 5.39354H20.9351V2.39381H21.9833V0.1875H13.3339V2.39381H14.3818V5.39418H14.4413C6.22565 6.92347 0 14.1997 0 22.9512C0 32.814 7.90522 40.8093 17.6566 40.8093C20.8625 40.814 24.0087 39.9316 26.7545 38.2577L28.3017 40.8125H37.375V32.1279H35.3217L35.3224 32.1276ZM22.1656 19.0663L21.5118 18.4047L18.192 21.3308C18.0208 21.268 17.8402 21.2357 17.6581 21.2354C16.7621 21.2354 16.0371 21.9903 16.0371 22.9205C16.0371 23.8523 16.7621 24.6069 17.6578 24.6069C18.5536 24.6069 19.2802 23.8523 19.2802 22.9205C19.2802 22.744 19.254 22.5739 19.2054 22.4135L22.1656 19.0663Z" fill="#FF282D"/>
</svg>
