<svg width="28" height="28" viewBox="0 0 28 28" fill="none" xmlns="http://www.w3.org/2000/svg">
<rect width="28" height="28" rx="5" fill="#121111"/>
<path d="M20.3 7H7.7C7.28 7 7 7.28 7 7.7V10.36C7 10.43 7.07 10.5 7.14 10.5H20.86C20.93 10.5 21 10.43 21 10.36V7.7C21 7.28 20.72 7 20.3 7Z" fill="#717070"/>
<path d="M20.8599 11.8999H12.0399C11.9699 11.8999 11.8999 11.9699 11.8999 12.0399V20.8599C11.8999 20.9299 11.9699 20.9999 12.0399 20.9999H20.2999C20.7199 20.9999 20.9999 20.7199 20.9999 20.2999V12.0399C20.9999 11.9699 20.9299 11.8999 20.8599 11.8999Z" fill="#717070"/>
<path d="M10.36 11.8999H7.14C7.07 11.8999 7 11.9699 7 12.0399V20.2999C7 20.7199 7.28 20.9999 7.7 20.9999H10.36C10.43 20.9999 10.5 20.9299 10.5 20.8599V12.0399C10.5 11.9699 10.43 11.8999 10.36 11.8999Z" fill="#717070"/>
</svg>
