<svg width="15" height="15" viewBox="0 0 15 15" fill="none" xmlns="http://www.w3.org/2000/svg">
<path d="M4.13523 7.50018H4.03163L3.95146 7.38321V7.30524H3.90149L3.84969 7.20145L3.73272 7.13647H3.66793H3.60258H3.55078V7.18846V7.24044L3.69374 7.37022L3.73272 7.44179V7.50036V7.56516L3.95146 7.72111H4.01827H4.07007H4.13505C4.13505 7.72111 4.10924 7.69511 4.20003 7.72111C4.29118 7.7471 4.29118 7.7471 4.29118 7.7471H4.39515H4.48594L4.53774 7.62373L4.30436 7.50018H4.13523Z" fill="white" fill-opacity="0.8"/>
<path d="M8.92948 2.86186H9.08543H9.1894H9.25438V2.7255H9.30654V2.65393L9.24156 2.58895H9.1894L9.03345 2.52415C9.03345 2.52415 9.02063 2.57614 8.98164 2.52415C8.94266 2.47217 8.91008 2.47217 8.91008 2.47217H8.78671H8.72173H8.66993C8.59159 2.52415 8.46181 2.47217 8.51398 2.58895V2.70591H8.56578L8.68274 2.78389C8.68274 2.78389 8.85187 2.83587 8.89049 2.84868C8.92948 2.86186 8.92948 2.86186 8.92948 2.86186Z" fill="white" fill-opacity="0.8"/>
<path d="M9.30664 4.00111V4.0703V4.15688V4.27823H9.39926H9.49261H9.63135H9.75253H9.90848H10.0124H10.1512C10.1512 4.27823 10.0818 4.20904 10.1512 4.15688C10.2202 4.10489 10.2202 4.10489 10.2202 4.10489V3.96633V3.65443V3.51587H10.1336H10.03H9.96064L9.92605 3.67182L9.83947 3.79299L9.76333 3.89696H9.68316H9.61415C9.61415 3.89696 9.54368 3.88909 9.49041 3.88268L9.39743 4.00074H9.30664V4.00111Z" fill="white" fill-opacity="0.8"/>
<path d="M9.49045 3.88298L9.49265 3.87987C9.39289 3.87072 9.43114 3.87603 9.49045 3.88298Z" fill="white" fill-opacity="0.8"/>
<path d="M7.50009 0C3.36447 0 0 3.36465 0 7.50009C0 11.6355 3.36447 15 7.50009 15C11.6357 15 15.0002 11.6357 15.0002 7.50009C15.0002 3.36465 11.6357 0 7.50009 0ZM14.5636 6.96872C14.5741 7.1082 14.5808 7.24859 14.5829 7.39008L14.5503 7.34432L14.4637 7.24036L14.3597 7.13602H14.2731H14.1866L14.2559 6.96323L14.3767 6.92846L14.5636 6.96872ZM12.593 5.69879V5.81996L12.749 6.01069C12.749 6.01069 12.749 6.01069 12.7836 6.11447V6.23583V6.32241L12.6102 6.40917H12.5408H12.4372L12.3503 6.32241L12.2291 6.27042L12.1426 6.25304C12.1426 6.25304 12.1426 6.25304 12.056 6.23583C11.969 6.21844 11.8308 6.21844 11.8308 6.21844L11.7615 6.23583L11.6575 6.28781L11.5191 6.3398V6.40899H11.4494H11.311L11.1898 6.3398L11.0165 6.20123V6.13205H10.9125L10.7741 5.99348H10.6876L10.6182 5.90672L10.3758 5.82014H10.2195H10.1329L10.2195 5.57762L10.3411 5.49104L10.4447 5.36986L10.5662 5.21391L10.6528 5.16193L10.7394 5.09274L10.8605 5.05815L10.9645 5.14472L11.0857 5.24869L11.1723 5.31788L11.2416 5.38707L11.3456 5.47383L11.3628 5.57762L11.3284 5.68634L11.2938 5.80276L11.3456 5.88933L11.4492 5.87194L11.5361 5.83735L11.6227 5.68616H11.6745L11.6921 5.57743L11.6403 5.50824C11.6403 5.50824 11.6403 5.50824 11.5885 5.42167L11.5363 5.3177C11.5363 5.3177 11.5363 5.3177 11.5017 5.2659C11.4671 5.21373 11.3806 5.09256 11.3806 5.09256L11.4367 5.09713L11.5887 5.10976L11.6577 5.14436H11.7702V5.23094L11.9117 5.35211C11.9117 5.35211 12.004 5.50806 12.0562 5.54284C12.108 5.57743 12.0908 5.68616 12.0908 5.68616H12.1598L12.2985 5.78537L12.2813 5.68616L12.3331 5.59464C12.3331 5.59464 12.3331 5.59464 12.3677 5.50806C12.4023 5.42148 12.3677 5.3867 12.3677 5.3867V5.26553L12.4023 5.19616L12.6274 4.97102C12.6274 4.97102 12.731 4.95363 12.7834 4.97102C12.8352 4.98822 12.8352 5.04021 12.8352 5.04021H12.9046L12.9218 5.12679H13.0087H13.2165L13.3204 5.23075H13.407V5.33472V5.40391H13.1989V5.49049H13.1299H13.0087H12.7662C12.7662 5.49049 12.7662 5.49049 12.6622 5.54247C12.5584 5.59464 12.593 5.69879 12.593 5.69879ZM2.927 2.10845L2.93066 2.09087C3.05477 1.98581 3.18198 1.88495 3.31322 1.78849L3.29071 1.90051L3.2389 2.06946L3.16093 2.22541L2.92719 2.2514L2.86221 2.2384L2.927 2.10845ZM0.414038 7.50009C0.414038 6.6797 0.555895 5.89245 0.813433 5.159V5.19598V5.45571L0.891408 5.73283V5.92356V6.1487L0.96975 6.30465V6.65115H1.03876V6.73773L1.12533 6.84169L1.28165 6.42601V6.59935V6.68593V7.01503L1.5412 7.17098H1.66238L1.80112 7.56946L1.93987 7.70803L2.33816 7.77722H2.47691V7.8292H2.58087L2.80583 8.10632L2.97917 8.26227L3.23909 8.36624H3.30846L3.37783 8.45282L3.53378 8.57417L3.63738 8.66075V8.72994L3.53378 9.37077L3.51621 9.47455L3.44721 9.69969L3.34287 9.9942L3.53378 10.1502H3.63738V10.2367L3.77613 10.3753C3.77613 10.3753 3.94947 10.739 3.96667 10.8084C3.98425 10.8777 4.17479 11.1723 4.17479 11.1723C4.17479 11.1723 4.10542 11.2414 4.17479 11.3108C4.2438 11.38 4.26137 11.4494 4.26137 11.4494L4.34795 11.7265V11.969C4.36515 12.073 4.34795 12.2981 4.34795 12.3501C4.34795 12.4021 4.34612 12.6446 4.35582 12.7314C4.36515 12.818 4.35582 13.0433 4.35582 13.0433H4.41732V13.3378C4.41732 13.3378 4.5039 13.3724 4.5039 13.4764C4.5039 13.5802 4.5039 13.5802 4.5039 13.5802V13.7707L4.58004 13.9534C2.12547 12.8383 0.414038 10.3661 0.414038 7.50009ZM7.50009 14.5858C6.58818 14.5858 5.71654 14.4108 4.91538 14.0956C4.92032 14.0826 4.92691 14.0672 4.93642 14.0478C5.00543 13.9093 5.00543 13.9093 5.00543 13.9093C5.00543 13.9093 5.0748 13.8399 5.09201 13.7013C5.10958 13.5628 5.023 13.5628 5.09201 13.4414C5.16138 13.3202 5.19634 13.2335 5.19634 13.2335C5.19634 13.2335 5.0748 13.2335 5.19634 13.1817C5.31715 13.1297 5.61184 12.939 5.61184 12.939C5.61184 12.939 5.75059 12.7138 5.7678 12.6446C5.78537 12.5753 5.7678 12.4021 5.7678 12.4021L5.97591 12.1076L6.28763 12.0556C6.28763 12.0556 6.357 11.9862 6.4088 11.9516C6.46097 11.917 6.59972 11.7785 6.59972 11.7785C6.59972 11.7785 6.73809 11.6919 6.78989 11.5878C6.84169 11.4838 6.92864 11.2586 6.94585 11.1721C6.96342 11.0855 6.94585 10.9815 6.94585 10.9815C6.94585 10.9815 6.94401 10.9989 6.95372 10.8948C6.96342 10.791 6.90942 10.635 6.95372 10.583C6.99765 10.5311 7.06702 10.4271 7.10216 10.3751C7.13657 10.3231 7.13657 10.3231 7.13657 10.3231V10.15V10.046C7.13657 10.046 7.25811 9.92483 7.13657 9.87303C7.0154 9.82105 7.0154 9.82105 7.0154 9.82105L6.94603 9.78645C6.94603 9.78645 6.89423 9.76906 6.84206 9.73447C6.79026 9.69987 6.89423 9.75186 6.79026 9.69987C6.68666 9.64789 6.60008 9.6133 6.60008 9.6133L6.30557 9.43117H6.08043V9.24941L6.04547 9.12824L5.99367 9.02427L5.37023 8.57399C5.37023 8.57399 5.26626 8.59138 5.21428 8.55679C5.16211 8.52219 4.62507 8.33165 4.62507 8.33165L4.5039 8.31426H4.32983L4.24325 8.26227L4.13928 8.29687L4.002 8.36606V8.41804H3.91433L3.72378 8.34885L3.60224 8.21029L3.44666 8.07173L3.35971 7.95055L3.29034 7.91596L3.23854 7.84659L2.94439 7.69064L3.04799 7.50009L2.99619 7.30936C2.99619 7.30936 2.89223 7.29197 2.83988 7.27477C2.78808 7.25738 2.78808 7.25738 2.78808 7.25738H2.63213L2.56275 7.23999H2.355L2.32041 7.01485L2.355 6.91088L2.4068 6.77232L2.49338 6.72034L2.78789 6.63376C2.78789 6.63376 2.82249 6.61637 2.94421 6.61637C3.06502 6.61637 3.18656 6.61637 3.18656 6.61637L3.29016 6.73773C3.29016 6.73773 3.3771 6.77232 3.44647 6.82449C3.51548 6.87647 3.51548 6.87647 3.58485 6.91107C3.65422 6.94566 3.7408 6.98044 3.7408 6.98044L3.70621 6.80728L3.77558 6.56475L3.75837 6.28763L4.00182 6.21844V6.13186L4.12189 6.06267L4.24307 5.94132L4.41641 5.81996L4.43361 5.71599V5.57743L4.45118 5.23094L4.55478 5.17895L4.77992 5.14436H4.8665L4.95345 5.12697L5.02282 5.10958L5.1094 5.09219L5.33454 5.0576L5.40391 5.00561L5.49543 4.93441L5.5379 4.90146L5.43393 4.87547L5.31697 4.86248H5.16102L5.07023 4.75851L5.2 4.51177H5.27834L5.38451 4.42684L5.4731 4.356L5.5379 4.57675L5.68085 4.62892C5.75919 4.62892 5.90178 4.6679 5.90178 4.6679H5.96676L6.1487 4.57675V4.51195L6.09654 4.26503L6.08372 4.14807L5.78482 3.82335L5.68085 3.65441L5.5897 3.49846L5.55108 3.42048L5.51209 3.3167L5.34296 3.19973H5.18701H5.10903L4.95308 3.13494C4.95308 3.13494 5.00488 3.27789 4.90128 3.13494C4.79731 2.99198 4.71934 2.90101 4.71934 2.90101H4.68035L4.62855 2.83622H4.49841V2.91401C4.49841 2.91401 4.47223 3.04397 4.47223 3.08295C4.47223 3.12194 4.45942 3.18692 4.45942 3.18692C4.45942 3.18692 4.45942 3.44666 4.42043 3.49882C4.38144 3.55081 4.36863 3.61579 4.36863 3.61579L4.26467 3.81054L4.12171 3.84953L4.05691 3.82354L4.00145 3.79754L3.784 3.69358L3.64105 3.48564L3.56325 3.38168L3.53744 3.31688L3.48528 3.2519L3.43348 3.16093V3.04397L3.52427 2.90101L3.58925 2.99198L3.65422 2.83603L3.7322 2.77124L3.74501 2.68026H3.79681H3.83617H4.00164H4.14789L4.19969 2.61529V2.55031L4.26467 2.42053L4.30365 2.30357C4.30365 2.30357 4.31647 2.30357 4.42062 2.22559C4.52422 2.1478 4.52422 2.1478 4.52422 2.1478L4.57638 2.08282H4.65436H4.70616L4.71934 2.1478V2.2126L4.81013 2.48551V2.61547L4.79731 2.68045L4.99207 2.73225H5.08286C5.08286 2.73225 5.19982 2.71925 5.2648 2.71925C5.32978 2.71925 5.39494 2.71925 5.39494 2.71925H5.47292L5.58951 2.53731L5.57707 2.42035L5.4731 2.2644V2.16061L5.34296 2.08264C5.34296 2.08264 5.36913 2.03065 5.31678 1.93986C5.26498 1.84889 5.08304 1.64096 5.08304 1.64096H5.03124L4.90146 1.524C4.90146 1.524 4.83648 1.62796 4.70634 1.524C4.57657 1.42003 4.57657 1.42003 4.57657 1.42003C4.57657 1.42003 4.53758 1.498 4.48578 1.42003C4.43361 1.34224 4.32946 1.30325 4.32946 1.30325H4.27766L4.25185 1.36823L4.13452 1.498V1.56298L4.06954 1.75774L4.00164 1.86171V2.00466L3.92696 2.03065L3.83617 2.05665L3.82299 1.97867L3.75819 1.8877L3.74501 1.79673L3.41115 1.71875C4.17973 1.17347 5.06107 0.776825 6.01307 0.572734L5.92777 0.62728L5.75938 0.705256L5.66822 0.835215L5.60324 0.952178V1.06914L5.70721 1.14712H5.97994H6.07073C6.07073 1.14712 6.10971 1.12112 6.14907 1.14712C6.18769 1.17311 6.25267 1.22491 6.25267 1.22491L6.27884 1.30288L6.35682 1.51082V1.5628V1.66677L6.29184 1.77074L6.26603 1.8747L6.29184 1.97867V2.2384L6.35682 2.30338V2.45933V2.61529C6.35682 2.61529 6.4218 2.69326 6.44761 2.75806C6.47378 2.82304 6.44761 2.90101 6.44761 2.90101L6.57775 2.97899V3.10895H6.65573V3.19992H6.7337H6.79868C6.79868 3.19992 6.87666 3.08295 6.90228 3.04397C6.92846 3.00498 7.0974 2.79704 7.0974 2.79704L7.19002 2.75806C7.19002 2.75806 7.29198 2.69326 7.34378 2.68026C7.39594 2.66727 7.39594 2.66727 7.39594 2.66727C7.39594 2.66727 7.60406 2.5633 7.64305 2.53731C7.68167 2.51132 7.81181 2.42035 7.81181 2.42035L7.87679 2.31656L7.96758 2.2644L8.04555 2.2384C8.04555 2.2384 8.13671 2.22541 8.1757 2.21241C8.21468 2.19942 8.29229 2.17343 8.29229 2.17343L8.38345 2.08245V1.93968L8.5782 1.91369V1.83572L8.65618 1.76415V1.61478V1.51082V1.44584V1.38086L8.73452 1.30307V1.2639L8.86429 1.18592L8.92909 1.09495V1.02997V0.977986V0.926003L9.03306 0.757056L9.11103 0.679081L9.18901 0.640093L9.20823 0.62362C10.1988 0.869809 11.1069 1.32521 11.8845 1.9395H11.848C11.848 1.9395 11.848 1.9395 11.779 1.99148C11.7097 2.04347 11.6747 1.99148 11.6747 1.99148H11.6057L11.4845 2.09545L11.3458 2.286L11.2592 2.47196H11.1377L11.0341 2.66672C11.0341 2.66672 10.9823 2.68429 10.9301 2.73628C10.8783 2.78808 10.8265 3.0134 10.8265 3.0134H10.7395L10.6788 3.11718V3.19919L10.6184 3.29052V3.4117H10.7395L10.8435 3.51566L10.9823 3.60242H11.0688L11.1724 3.51566H11.2418H11.4496L11.5365 3.44647L11.5711 3.32512L11.6747 3.11718V2.97862L11.7269 2.86129H11.8134L11.9117 2.66654L12.0216 2.86129V2.97862V3.0652L12.0562 3.19919L12.0908 3.34232L12.0562 3.44629V3.51548H11.9117L11.831 3.63684L11.6923 3.75819L11.4496 3.81017H11.3288H11.2418L10.9995 3.79279H10.8955L10.7915 3.89675C10.7915 3.89675 10.7397 3.94874 10.6704 4.00054C10.6014 4.05252 10.5492 4.08712 10.5492 4.08712L10.4798 4.17388L10.4104 4.27784H10.3414L10.2199 4.43379L10.0297 4.48578L9.8734 4.55497L9.76284 4.58956L9.85619 4.67632L10.0295 4.72831L10.0985 4.86687L10.2197 4.95345L10.1851 5.09201C10.1851 5.09201 10.1851 5.09201 10.0467 5.1266C9.90799 5.1612 9.85619 5.14399 9.85619 5.14399C9.85619 5.14399 9.85619 5.14399 9.76284 5.1266C9.66986 5.1094 9.63087 5.07462 9.63087 5.07462L9.5615 5.09201L9.47455 5.26535L9.39694 5.29994V5.36913L9.42275 5.59427C9.42275 5.59427 9.42275 5.59427 9.39694 5.66346C9.37077 5.73265 9.52672 5.78482 9.52672 5.78482L9.76266 5.95779V6.02716L9.66546 6.14834L9.64789 6.23491L9.44032 6.53016L9.30634 6.65133L9.1286 6.80728L8.92049 6.92846C8.92049 6.92846 8.83391 7.08441 8.72994 7.13621C8.62634 7.18819 8.72994 7.27495 8.72994 7.27495C8.72994 7.27495 8.72994 7.48289 8.72994 7.50009C8.72994 7.5173 8.72994 7.79662 8.72994 7.79662L8.86869 8.03695V8.12371L8.95527 8.21029V8.29687L9.1286 8.60877V8.69535L9.30634 8.8167L9.38852 8.86869H9.5615L9.66546 8.88608C9.66546 8.88608 9.66546 8.88608 9.76266 8.90346C9.86022 8.92085 9.8906 8.92085 9.9424 8.93806C9.9942 8.95527 10.2195 8.95527 10.2195 8.95527H10.3235H10.4965L10.618 9.00725L10.7568 9.21518L10.774 9.28437L10.8605 9.49231L10.9993 9.80421C10.9993 9.80421 10.9993 9.94277 10.9993 10.0813C10.9993 10.2199 10.9647 10.2373 10.9647 10.2373V10.3586L10.9993 10.7397L11.0687 10.9823L11.1032 11.2768L11.1205 11.4847L11.1723 11.6926L11.2416 11.9178L11.2592 12.0217V12.2643L11.3628 12.5416L11.6573 12.6282L11.8479 12.5244L12.0906 12.403L12.1942 12.3164C12.1942 12.3164 12.3501 12.2125 12.4193 12.1257C12.4887 12.0391 12.5753 12.0045 12.5753 12.0045L12.5928 11.9178L12.6964 11.6407L12.714 11.5367L12.7658 11.3981L12.8784 11.2942L12.9564 11.1208L13.0257 11.017L13.0951 10.8959C13.0951 10.8959 13.0951 10.7745 13.1297 10.6879C13.1643 10.6013 13.1469 10.4456 13.1469 10.4456V10.3588L13.2163 10.1857L13.2509 10.0123L13.3374 9.82178L13.372 9.63105L13.476 9.54447L13.5454 9.44069L13.6666 9.21555L13.7877 9.07699L13.8571 9.00761C13.8571 9.00761 13.9955 8.83446 14.0476 8.73031C14.0994 8.62652 14.1342 8.73031 14.1342 8.73031V8.64373L14.0652 8.55715L14.013 8.4358H13.9612H13.8225H13.7535H13.6838L13.4414 8.26264L13.1987 7.98552L13.0779 7.79698L13.0433 7.74738L13.0257 7.6738L13.0779 7.44207C13.0779 7.44207 13.0779 7.30991 13.0779 7.24072C13.0779 7.17153 13.0603 7.13676 13.0603 7.13676V6.94621L13.1643 6.87702L13.2679 7.03297C13.2679 7.03297 13.3201 7.22352 13.3373 7.2755C13.3548 7.32748 13.4238 7.44225 13.4238 7.44225H13.476L13.4932 7.79717L13.7184 8.10724L13.9435 8.00327H14.0129H14.1168H14.1862H14.3074L14.394 7.91669L14.5673 7.74756L14.5827 7.60442C14.5677 8.62341 14.337 9.5906 13.9338 10.4628H13.8655L13.7703 10.5496C13.7703 10.5496 13.7703 10.5496 13.7357 10.6187C13.7011 10.6879 13.6318 10.8093 13.6318 10.8093L13.5106 10.9133C13.5106 10.9133 13.5106 10.9133 13.422 11.0692C13.3334 11.2252 13.372 11.1212 13.4066 11.2943C13.4145 11.3337 13.4183 11.3632 13.4205 11.3866C12.1526 13.3116 9.97297 14.5858 7.50009 14.5858ZM14.585 7.53194V7.50009L14.5858 7.49881C14.5858 7.49918 14.5858 7.49954 14.5858 7.50009C14.5858 7.51089 14.585 7.52132 14.585 7.53194Z" fill="white" fill-opacity="0.8"/>
</svg>
