<svg width="28" height="28" viewBox="0 0 28 28" fill="none" xmlns="http://www.w3.org/2000/svg">
<path d="M18.5856 7H8.44127C7.63748 7 7 7.68657 7 8.55224V19.4478C7 20.3134 7.63748 21 8.44127 21H18.5579C19.3616 21 19.9991 20.3134 19.9991 19.4478V8.55224C20.0268 7.68657 19.3894 7 18.5856 7ZM16.6177 18.1045H10.4092C10.1043 18.1045 9.85482 17.8358 9.85482 17.5075C9.85482 17.1791 10.1043 16.9104 10.4092 16.9104H16.6177C16.9226 16.9104 17.172 17.1791 17.172 17.5075C17.172 17.8358 16.9226 18.1045 16.6177 18.1045ZM16.6177 14.6119H10.4092C10.1043 14.6119 9.85482 14.3433 9.85482 14.0149C9.85482 13.6866 10.1043 13.4179 10.4092 13.4179H16.6177C16.9226 13.4179 17.172 13.6866 17.172 14.0149C17.172 14.3433 16.9226 14.6119 16.6177 14.6119ZM16.6177 11.0896H10.4092C10.1043 11.0896 9.85482 10.8209 9.85482 10.4925C9.85482 10.1642 10.1043 9.89552 10.4092 9.89552H16.6177C16.9226 9.89552 17.172 10.1642 17.172 10.4925C17.172 10.8209 16.9226 11.0896 16.6177 11.0896Z" fill="#E9E9E9"/>
</svg>
