<svg width="53" height="41" viewBox="0 0 53 41" fill="none" xmlns="http://www.w3.org/2000/svg">
<g clip-path="url(#clip0)">
<path fill-rule="evenodd" clip-rule="evenodd" d="M10.1798 0.1875L12.1269 1.86771L20.7574 3.8308H32.238L40.9636 1.78899L42.8194 0.1875L47.9486 1.20497L48.757 12.1799L51.5262 15.1839L52.4996 21.3506L48.2267 25.572L51.9019 31.9473L48.7873 31.2272L50.457 35.3798L36.3437 40.025L26.4997 40.7622L16.6557 40.025L2.54209 35.3798L4.2118 31.2272L1.09729 31.9473L4.7724 25.572L0.499512 21.3506L1.47297 15.1839L4.24209 12.1799L5.05055 1.20497C6.88384 0.841233 8.0235 0.615025 10.1797 0.1875H10.1798Z" fill="#310401"/>
<path fill-rule="evenodd" clip-rule="evenodd" d="M37.2873 7.48996C49.4078 -7.02396 46.753 26.8093 46.5021 25.1343L46.0348 25.2616L45.7438 24.8737C42.4719 20.5129 34.0322 12.0914 37.2873 7.48994V7.48996Z" fill="#310401"/>
<path fill-rule="evenodd" clip-rule="evenodd" d="M15.7114 7.48996C3.59092 -7.02396 6.24592 26.8093 6.49663 25.1343L6.96395 25.2616L7.2549 24.8737C10.5268 20.5129 18.9665 12.0914 15.7114 7.48994L15.7114 7.48996Z" fill="#310401"/>
<path fill-rule="evenodd" clip-rule="evenodd" d="M26.5001 5.21411H32.3861L37.2381 8.18445L40.4597 14.7642L42.1047 13.0209L41.7295 15.978L44.4433 16.6977L42.1918 17.7692L49.3168 30.1301L46.6785 29.5202L48.7564 34.6867L36.0925 38.8545L26.5001 39.573L16.9077 38.8545L4.2437 34.6867L6.32129 29.5202L3.68311 30.1301L10.8082 17.7692L8.55656 16.6977L11.2705 15.978L10.8955 13.0209L12.5404 14.7642L15.7619 8.18445L20.6138 5.21411H26.5001Z" fill="#CB3805"/>
<path fill-rule="evenodd" clip-rule="evenodd" d="M32.2328 28.9807L35.7469 27.2768L37.1889 21.2417L40.8721 31.2113L36.092 38.8544L26.4995 39.5729V27.0855L32.2328 28.9807Z" fill="#780500"/>
<path fill-rule="evenodd" clip-rule="evenodd" d="M20.7662 28.9807L17.2521 27.2768L15.8099 21.2417L12.127 31.2113L16.9072 38.8544L26.4995 39.5729V27.0855L20.7662 28.9807Z" fill="#780500"/>
<path fill-rule="evenodd" clip-rule="evenodd" d="M39.7395 13.2942L40.4592 14.7643L42.1042 13.021L41.729 15.9781L44.4428 16.6977L42.1913 17.7693L49.3163 30.1301L46.678 29.5203L48.7559 34.6867L42.96 36.5942L46.8032 33.3797L39.6411 13.3378L39.7395 13.2942Z" fill="#ED6437"/>
<path fill-rule="evenodd" clip-rule="evenodd" d="M26.4995 25.8718L28.4697 25.9389L32.2328 28.9809L34.9573 28.9771L36.8514 31.859L30.6628 38.6665L26.4995 39.5731L22.3362 38.6665L16.1475 31.859L18.0416 28.9771L20.7662 28.9809L24.5292 25.9389L26.4995 25.8718Z" fill="#FEE7D5"/>
<path fill-rule="evenodd" clip-rule="evenodd" d="M26.4995 37.7559H29.8508L31.9859 33.1655L34.998 33.8972L30.6628 38.6665L26.4995 39.5731L22.3363 38.6665L18.7012 34.6678L21.3862 34.0333L23.1481 37.7559H26.4995Z" fill="#F0BC95"/>
<path fill-rule="evenodd" clip-rule="evenodd" d="M28.8002 21.638L27.9062 16.2611L31.7902 15.179L32.1701 20.2817L28.8002 21.638Z" fill="#F0BC95"/>
<path fill-rule="evenodd" clip-rule="evenodd" d="M34.9847 17.6667L32.832 15.9504L33.1183 20.142L34.7412 19.8043L34.9847 17.6667Z" fill="#F0BC95"/>
<path fill-rule="evenodd" clip-rule="evenodd" d="M36.7276 11.3399L36.2983 7.60939L43.1829 1.66797L46.7409 2.37363L47.5103 12.8205L50.0357 15.5599L47.7839 21.2358L50.4768 18.2476L51.0935 21.0338L47.346 24.7356L43.476 19.9992L46.6349 17.1815L44.607 13.5214L44.2629 7.09558L39.6408 13.3377L36.7276 11.3399Z" fill="#FEE7D5"/>
<path fill-rule="evenodd" clip-rule="evenodd" d="M47.3469 24.7358L43.4769 19.9994L46.6357 17.1817L44.6078 13.5216L44.2639 7.09571L45.4532 13.5239L47.7721 16.1294L47.7846 21.2359L47.3469 24.7358H47.3469ZM44.2639 7.0957L39.6416 13.3378L36.7285 11.3401L39.5152 11.8243L44.2639 7.0957Z" fill="#F0BC95"/>
<path fill-rule="evenodd" clip-rule="evenodd" d="M36.2989 7.60951L32.3857 5.21419L41.5258 3.09814L36.2989 7.60951Z" fill="#780500"/>
<path fill-rule="evenodd" clip-rule="evenodd" d="M26.4995 30.1292L29.0906 29.7581L29.4367 30.4445L26.9571 32.585L26.9356 33.9748L27.3122 34.3238L31.1237 33.7887L31.9859 33.1654L32.382 33.5193L31.7676 34.8373L31.0745 34.4956L26.4995 35.0094H22.694L22.0006 35.3511L21.3862 34.0332L21.7823 33.6792L22.6447 34.3025L25.6866 34.3238L26.0635 33.9748L26.0419 32.585L23.5623 30.4445L23.9082 29.7581L26.4995 30.1292Z" fill="#310401"/>
<path fill-rule="evenodd" clip-rule="evenodd" d="M26.4995 30.208L29.0906 29.7582L27.4635 26.1123L26.4995 26.1128L25.5353 26.1123L23.9082 29.7582L26.4995 30.208Z" fill="#F0BC95"/>
<path fill-rule="evenodd" clip-rule="evenodd" d="M32.3672 27.5684L34.4396 26.3992L35.3084 23.9313L32.417 22.3787L30.1781 23.6736L29.5195 26.5811L32.3672 27.5684Z" fill="#310401"/>
<path fill-rule="evenodd" clip-rule="evenodd" d="M40.3107 32.1088L36.0923 38.8544L42.9603 36.594L44.7494 31.5304L42.744 29.255L44.6269 29.2226L37.1892 21.2417L40.3107 32.1088Z" fill="#FEE7D5"/>
<path fill-rule="evenodd" clip-rule="evenodd" d="M26.4997 25.8717L28.4698 25.9388L27.7328 22.4402H26.4997H25.2662L24.5293 25.9388L26.4997 25.8717Z" fill="#ED6437"/>
<path fill-rule="evenodd" clip-rule="evenodd" d="M32.3833 22.9854L30.5318 24.028L30.4331 25.9609L32.2427 26.8956L34.0525 25.9609L34.194 24.0066L32.3833 22.9854Z" fill="#780500"/>
<path fill-rule="evenodd" clip-rule="evenodd" d="M32.2592 23.45L31.0414 24.1357L30.9766 25.4071L32.1669 26.0219L33.3572 25.4071L33.4502 24.1217L32.2592 23.45Z" fill="#310401"/>
<path fill-rule="evenodd" clip-rule="evenodd" d="M32.9019 23.0964L32.2904 23.4618L32.2642 24.231L32.9412 24.5806L33.6183 24.231L33.6712 23.5L32.9019 23.0964Z" fill="#FEE7D5"/>
<path fill-rule="evenodd" clip-rule="evenodd" d="M26.4995 5.21411V10.3764L31.6536 5.21411H26.4995Z" fill="#ED6437"/>
<path fill-rule="evenodd" clip-rule="evenodd" d="M36.0923 38.8545L37.6552 36.3549L41.657 34.5692L43.1275 31.6235L42.744 29.2551L44.7494 31.5305L42.9603 36.5941L36.0923 38.8545Z" fill="#F0BC95"/>
<path fill-rule="evenodd" clip-rule="evenodd" d="M31.7904 15.179L27.9062 16.2609L28.6811 20.9214L30.4091 20.0031L31.7904 15.179Z" fill="#FEE7D5"/>
<path fill-rule="evenodd" clip-rule="evenodd" d="M34.9843 17.6669L32.832 15.9504L33.8016 19.267L34.9843 17.6669Z" fill="#FEE7D5"/>
<path fill-rule="evenodd" clip-rule="evenodd" d="M13.2601 13.2942L12.5404 14.7643L10.8955 13.021L11.2705 15.9781L8.55656 16.6977L10.8082 17.7693L3.68311 30.1301L6.32129 29.5203L4.2437 34.6867L10.0395 36.5942L6.1963 33.3797L13.3583 13.3378L13.2601 13.2942Z" fill="#ED6437"/>
<path fill-rule="evenodd" clip-rule="evenodd" d="M24.1995 20.6104L25.0935 15.2336L21.2096 14.1514L20.8296 19.2541L24.1995 20.6104Z" fill="#F0BC95"/>
<path fill-rule="evenodd" clip-rule="evenodd" d="M18.0137 17.153L20.1661 15.4368L19.8799 19.6283L18.2573 19.2906L18.0137 17.153Z" fill="#F0BC95"/>
<path fill-rule="evenodd" clip-rule="evenodd" d="M16.7003 7.60951L20.6133 5.21419L11.4731 3.09814L16.7003 7.60951Z" fill="#780500"/>
<path fill-rule="evenodd" clip-rule="evenodd" d="M20.6324 27.5684L18.56 26.3992L17.6914 23.9313L20.5827 22.3787L22.8218 23.6736L23.4801 26.5811L20.6324 27.5684Z" fill="#310401"/>
<path fill-rule="evenodd" clip-rule="evenodd" d="M12.6876 32.1088L16.9065 38.8544L10.0383 36.594L8.24902 31.5304L10.2544 29.255L8.3719 29.2226L15.8092 21.2417L12.6876 32.1088Z" fill="#FEE7D5"/>
<path fill-rule="evenodd" clip-rule="evenodd" d="M20.616 22.9854L22.4673 24.028L22.566 25.9609L20.7564 26.8956L18.9465 25.9609L18.8052 24.0066L20.616 22.9854Z" fill="#780500"/>
<path fill-rule="evenodd" clip-rule="evenodd" d="M20.7403 23.45L21.9581 24.1357L22.023 25.4071L20.8329 26.0219L19.6423 25.4071L19.5493 24.1217L20.7403 23.45Z" fill="#310401"/>
<path fill-rule="evenodd" clip-rule="evenodd" d="M20.0968 23.0964L20.7085 23.4618L20.7346 24.231L20.0577 24.5806L19.3807 24.231L19.3276 23.5L20.0968 23.0964Z" fill="#FEE7D5"/>
<path fill-rule="evenodd" clip-rule="evenodd" d="M26.4999 5.21411V10.3764L21.3457 5.21411H26.4999Z" fill="#ED6437"/>
<path fill-rule="evenodd" clip-rule="evenodd" d="M16.9065 38.8545L15.3433 36.3549L11.3415 34.5692L9.87115 31.6235L10.2544 29.2551L8.24902 31.5305L10.0383 36.5941L16.9065 38.8545Z" fill="#F0BC95"/>
<path fill-rule="evenodd" clip-rule="evenodd" d="M21.209 14.1514L25.0929 15.2333L24.3183 19.8938L22.5901 18.9755L21.209 14.1514Z" fill="#FEE7D5"/>
<path fill-rule="evenodd" clip-rule="evenodd" d="M18.0137 17.153L20.1661 15.4365L19.1966 18.7531L18.0137 17.153Z" fill="#FEE7D5"/>
<path fill-rule="evenodd" clip-rule="evenodd" d="M16.2705 11.3399L16.6999 7.60939L9.81537 1.66797L6.2572 2.37363L5.4878 12.8205L2.96253 15.5599L5.21437 21.2358L2.52125 18.2476L1.90479 21.0338L5.65211 24.7356L9.52203 19.9992L6.36325 17.1815L8.39116 13.5214L8.73514 7.09558L13.3574 13.3377L16.2705 11.3399Z" fill="#FEE7D5"/>
<path fill-rule="evenodd" clip-rule="evenodd" d="M5.65305 24.7358L9.52301 19.9994L6.36422 17.1817L8.39211 13.5216L8.73609 7.09571L7.54672 13.5239L5.22788 16.1294L5.21533 21.2359L5.65306 24.7358H5.65305ZM8.73608 7.0957L13.3584 13.3378L16.2714 11.3401L13.4848 11.8243L8.73608 7.0957Z" fill="#F0BC95"/>
<path fill-rule="evenodd" clip-rule="evenodd" d="M30.1775 23.6734L29.5189 26.581L28.4697 25.9389L29.1847 22.619L32.182 21.0896L36.0844 22.7888L35.3078 23.9312L32.4164 22.3786L30.1775 23.6734Z" fill="#FEE7D5"/>
<path fill-rule="evenodd" clip-rule="evenodd" d="M22.8221 23.6734L23.4805 26.581L24.5297 25.9389L23.815 22.619L20.8174 21.0896L16.915 22.7888L17.6918 23.9312L20.583 22.3786L22.8221 23.6734Z" fill="#FEE7D5"/>
</g>
<defs>
<clipPath id="clip0">
<rect width="52" height="40.625" fill="white" transform="translate(0.5 0.1875)"/>
</clipPath>
</defs>
</svg>
