<svg width="28" height="28" viewBox="0 0 28 28" fill="none" xmlns="http://www.w3.org/2000/svg">
<rect width="28" height="28" rx="5" fill="#121111"/>
<path d="M20.8141 11.0499C20.5958 10.5444 19.9939 10.1607 19.4746 10.1972C18.9553 10.2336 18.3549 10.0305 18.0889 9.7771C17.823 9.52367 17.6074 8.9244 17.627 8.40214C17.6466 7.87988 17.2449 7.29461 16.7312 7.09019C16.2175 6.88576 15.5233 7.04118 15.1818 7.43183C14.8403 7.82247 14.2678 8.10951 13.9039 8.12071C13.5399 8.13191 12.9605 7.85888 12.6077 7.47803C12.255 7.09719 11.5538 6.96137 11.0485 7.1798C10.5432 7.39823 10.1569 8.0003 10.1933 8.51976C10.2297 9.03922 10.0267 9.63989 9.77337 9.90592C9.52002 10.172 8.92095 10.3848 8.40167 10.368C7.88238 10.3512 7.29451 10.7516 7.09016 11.2655C6.8858 11.7793 7.04117 12.4738 7.43168 12.8155C7.8222 13.1571 8.10913 13.7298 8.12033 14.0924C8.13153 14.4551 7.85999 15.0361 7.47787 15.389C7.09576 15.7418 6.95859 16.4419 7.17974 16.9501C7.40089 17.4584 7.99996 17.8421 8.51924 17.8056C9.03853 17.7692 9.639 17.9723 9.90494 18.2257C10.1709 18.4791 10.3864 19.0756 10.3668 19.5979C10.3472 20.1201 10.749 20.7054 11.264 20.9098C11.7791 21.1142 12.472 20.9588 12.8135 20.5682C13.155 20.1775 13.7261 19.8905 14.09 19.8849C14.4539 19.8793 15.0334 20.1495 15.3889 20.5304C15.7445 20.9112 16.4443 21.0414 16.9496 20.823C17.4549 20.6046 17.8412 20.0053 17.8048 19.4858C17.7684 18.9664 17.9714 18.3657 18.2247 18.0997C18.478 17.8336 19.0757 17.6208 19.5978 17.6418C20.1199 17.6628 20.705 17.2596 20.9093 16.7443C21.1137 16.2291 20.9611 15.536 20.5678 15.1915C20.1745 14.8471 19.8875 14.2814 19.8777 13.9132C19.8679 13.5449 20.1395 12.9695 20.523 12.6166C20.7141 12.4094 20.8428 12.1524 20.8943 11.8752C20.9458 11.598 20.918 11.3119 20.8141 11.0499ZM15.0754 16.5021C14.5808 16.716 14.0338 16.7784 13.5038 16.6813C12.9737 16.5841 12.4844 16.3319 12.0976 15.9565C11.7109 15.5811 11.4442 15.0994 11.3312 14.5723C11.2182 14.0453 11.2641 13.4965 11.463 12.9955C11.6618 12.4945 12.0048 12.0638 12.4485 11.7578C12.8921 11.4519 13.4166 11.2844 13.9554 11.2767C14.4942 11.2689 15.0232 11.4213 15.4755 11.7144C15.9277 12.0075 16.2829 12.4282 16.4961 12.9233C16.7818 13.5858 16.7932 14.3348 16.5276 15.0057C16.2621 15.6766 15.7413 16.2148 15.0796 16.5021H15.0754Z" fill="#717070"/>
</svg>
