<svg width="28" height="28" viewBox="0 0 28 28" fill="none" xmlns="http://www.w3.org/2000/svg">
<rect width="28" height="28" rx="5" fill="#121111"/>
<path d="M10.2308 13.4615C12.0151 13.4615 13.4615 12.0151 13.4615 10.2308C13.4615 8.44646 12.0151 7 10.2308 7C8.44646 7 7 8.44646 7 10.2308C7 12.0151 8.44646 13.4615 10.2308 13.4615Z" fill="#717070"/>
<path d="M17.7693 13.4615C19.5536 13.4615 21.0001 12.0151 21.0001 10.2308C21.0001 8.44646 19.5536 7 17.7693 7C15.985 7 14.5386 8.44646 14.5386 10.2308C14.5386 12.0151 15.985 13.4615 17.7693 13.4615Z" fill="#717070"/>
<path d="M17.7693 21.0001C19.5536 21.0001 21.0001 19.5536 21.0001 17.7693C21.0001 15.985 19.5536 14.5386 17.7693 14.5386C15.985 14.5386 14.5386 15.985 14.5386 17.7693C14.5386 19.5536 15.985 21.0001 17.7693 21.0001Z" fill="#717070"/>
<path d="M10.2308 21.0001C12.0151 21.0001 13.4615 19.5536 13.4615 17.7693C13.4615 15.985 12.0151 14.5386 10.2308 14.5386C8.44646 14.5386 7 15.985 7 17.7693C7 19.5536 8.44646 21.0001 10.2308 21.0001Z" fill="#717070"/>
</svg>
